<?xml version="1.0" standalone="no"?>
<!DOCTYPE svg PUBLIC "-//W3C//DTD SVG 20010904//EN"
 "http://www.w3.org/TR/2001/REC-SVG-20010904/DTD/svg10.dtd">
<svg version="1.0" xmlns="http://www.w3.org/2000/svg"
 width="286.000000pt" height="286.000000pt" viewBox="0 0 286.000000 286.000000"
 preserveAspectRatio="xMidYMid meet">
<metadata>
Created by potrace 1.14, written by Peter Selinger 2001-2017
</metadata>
<g transform="translate(0.000000,286.000000) scale(0.100000,-0.100000)"
fill="#000000" stroke="none">
<path d="M1328 2806 c-1 -2 -32 -7 -67 -10 -36 -4 -67 -9 -70 -10 -3 -2 -24
-7 -46 -10 -22 -4 -76 -18 -119 -32 -352 -113 -639 -359 -806 -689 -53 -105
-107 -253 -117 -319 -2 -17 -6 -37 -9 -44 -18 -56 -26 -336 -11 -440 18 -132
55 -254 112 -379 l43 -92 -28 -38 c-149 -202 -73 -515 153 -628 150 -76 327
-65 450 29 23 17 47 35 53 39 6 4 38 -4 71 -18 65 -26 197 -63 253 -72 19 -3
55 -9 80 -13 59 -12 343 -6 400 8 25 6 61 14 80 17 120 21 316 107 460 203 74
49 258 219 314 291 128 165 228 397 265 616 19 109 22 357 6 429 -39 180 -51
222 -81 296 -128 314 -359 568 -653 717 -92 47 -246 104 -312 117 -13 2 -42 7
-64 11 -22 4 -49 10 -60 12 -24 5 -292 13 -297 9z m260 -91 c639 -68 1135
-622 1136 -1270 0 -79 -8 -186 -18 -235 -3 -14 -8 -38 -12 -55 -33 -167 -156
-413 -276 -550 -28 -32 -33 -31 -35 5 -3 47 -52 127 -107 177 -64 57 -166 117
-304 178 -186 83 -215 116 -208 240 4 63 6 67 50 108 69 64 100 141 100 247 0
62 -4 92 -16 110 -9 14 -14 34 -12 45 8 49 5 174 -6 215 -14 55 -69 154 -107
195 -64 69 -138 107 -242 127 -31 5 -64 17 -74 26 -13 11 -35 15 -74 14 -186
-5 -337 -123 -387 -302 -17 -61 -15 -229 3 -290 9 -28 8 -42 -5 -69 -20 -42
-14 -128 17 -222 25 -76 53 -121 91 -144 29 -17 34 -36 30 -113 -4 -79 -51
-119 -256 -218 -101 -48 -118 -54 -138 -43 -62 33 -197 45 -279 25 -40 -9
-101 -36 -130 -57 l-26 -19 -36 78 c-34 74 -72 185 -82 241 -22 117 -27 166
-28 254 -3 193 22 331 89 499 70 177 149 295 293 439 210 210 489 342 771 366
36 3 66 6 67 7 5 4 142 -2 211 -9z m-390 -734 c24 -27 193 -57 221 -39 16 10
25 9 44 -1 14 -7 34 -10 46 -6 12 4 36 9 54 11 55 7 66 10 73 16 3 4 12 4 19
1 8 -2 20 5 27 16 30 48 95 12 69 -38 -6 -11 -9 -26 -6 -33 4 -13 12 -48 22
-100 3 -15 16 -34 28 -42 26 -17 27 -43 3 -60 -15 -11 -22 -33 -33 -106 -3
-19 -7 -46 -10 -60 -14 -73 -15 -90 -5 -90 5 0 10 -13 10 -29 0 -30 -28 -50
-50 -36 -18 11 -230 -109 -230 -130 0 -40 -64 -41 -79 -2 -12 30 -186 129
-231 132 -19 1 -38 3 -42 4 -12 2 -9 61 2 61 9 0 7 27 -6 94 -5 24 -16 104
-19 126 0 9 -11 26 -23 38 -27 27 -28 37 -2 55 32 22 66 148 49 180 -26 47 33
79 69 38z m-430 -1454 c-40 -38 -119 -114 -175 -168 l-103 -99 -94 96 c-89 90
-94 96 -77 112 47 46 45 47 106 -18 32 -33 61 -60 65 -60 4 0 70 60 146 134
l139 135 33 -32 32 -31 -72 -69z"/>
<path d="M910 2390 c-108 -9 -135 -42 -133 -163 1 -73 9 -91 39 -85 16 3 20
15 24 85 3 45 9 85 13 90 5 4 45 10 90 13 79 5 82 6 82 29 0 31 -27 38 -115
31z"/>
<path d="M1895 2392 c-38 -4 -49 -15 -40 -41 6 -19 14 -21 78 -21 40 0 79 -5
87 -10 11 -6 16 -33 20 -92 4 -70 8 -83 24 -86 31 -6 40 15 39 89 -2 81 -14
118 -46 139 -24 15 -113 27 -162 22z"/>
<path d="M784 1309 c-12 -19 -8 -146 6 -178 19 -47 53 -64 134 -64 84 -1 106
6 106 32 0 25 -19 31 -95 31 -85 0 -95 11 -95 105 0 57 -3 74 -16 79 -23 9
-32 7 -40 -5z"/>
<path d="M2053 1313 c-9 -3 -13 -29 -13 -80 0 -96 -7 -103 -104 -103 -67 0
-75 -2 -81 -21 -11 -34 10 -43 90 -43 124 1 155 30 157 152 3 96 -6 113 -49
95z"/>
<path d="M1190 1940 c0 -5 -7 -10 -15 -10 -8 0 -17 -12 -21 -27 -3 -16 -12
-51 -19 -79 -9 -39 -10 -54 0 -67 12 -16 25 -19 176 -33 41 -3 76 -8 78 -10 2
-2 13 3 23 13 14 12 18 30 18 77 -1 86 -18 105 -110 120 -14 2 -37 7 -52 10
-16 3 -39 8 -53 11 -14 3 -25 1 -25 -5z"/>
<path d="M1580 1929 c-116 -24 -129 -36 -130 -125 0 -93 -8 -91 225 -68 73 7
86 21 72 78 -24 104 -28 116 -42 116 -8 0 -15 5 -15 10 0 6 -3 9 -7 9 -5 -1
-51 -10 -103 -20z"/>
<path d="M1130 1716 c0 -5 94 -121 119 -146 27 -27 46 -20 103 43 32 34 58 65
58 69 0 10 -30 16 -105 23 -127 12 -175 15 -175 11z"/>
<path d="M1659 1716 c-2 -2 -42 -7 -89 -11 -46 -3 -88 -9 -92 -11 -5 -3 5 -22
21 -42 104 -128 98 -128 200 -2 20 25 39 47 44 48 4 2 5 8 1 13 -5 9 -76 13
-85 5z"/>
<path d="M1125 1658 c2 -13 6 -36 9 -52 6 -34 20 -118 21 -128 1 -24 23 -26
52 -5 41 29 47 62 18 96 -71 80 -85 97 -85 104 0 4 -4 7 -9 7 -4 0 -7 -10 -6
-22z"/>
<path d="M1740 1672 c0 -4 -24 -34 -54 -67 -68 -75 -67 -103 6 -145 17 -10 30
0 34 25 17 108 25 154 30 173 4 13 2 22 -5 22 -6 0 -11 -3 -11 -8z"/>
<path d="M1450 1485 l0 -190 22 35 c12 19 37 58 55 87 50 77 49 112 -5 176
-24 28 -50 59 -58 67 -12 12 -14 -12 -14 -175z"/>
<path d="M1366 1601 c-68 -81 -67 -98 5 -212 l59 -93 0 182 c0 100 -3 182 -7
181 -5 0 -30 -26 -57 -58z"/>
<path d="M1218 1457 c-16 -13 -28 -28 -28 -34 0 -10 209 -137 215 -131 2 2
-23 44 -54 93 -64 100 -85 112 -133 72z"/>
<path d="M1567 1448 c-9 -18 -34 -61 -57 -95 -36 -56 -43 -81 -14 -54 5 5 25
18 44 29 119 65 150 85 150 93 0 19 -55 58 -81 59 -19 0 -29 -8 -42 -32z"/>
</g>
</svg>
